PathFileType	4	(X/Y/Z)	C:\Users\Basilio\Documents\Thesis Gigler\squatting_fais\c3dfiles\054\SJ_pre4\markers_experimental.trc
DataRate	CameraRate	NumFrames	NumMarkers	Units	OrigDataRate	OrigDataStartFrame	OrigNumFrames
200.000000	200.000000	4	61	mm	200.000000	988	1582
Frame#	Time	FHD			LBHD			RBHD			C7			T10			CLAV			LSHO			LUUPA			LMUPA			LDUPA			LLEP			LMEP			LRAD			LUL			LRFIN			RSHO			RUPA1			RMUPA			RDUPA			RLEP			RMEP			RRAD			RUL			RUFIN			LASI			RASI			USACR			LSACR			RSACR			LTHI1			LTHI2			LTHI3			LTHI4			LLFC			LMFC			LTIB1			LTIB2			LTIB3			LTIB4			LLMAL			LMMAL			LHEE			LMT1			LMT2			LMT5			RTHI			RTHI2			RTHI3			RTHI4			RLFC			RMFC			RTIB1			RTIB2			RTIB3			RTIB4			RLMAL			RMMAL			RHEE			RMT1			RMT2			RMT5			
		X1	Y1	Z1	X2	Y2	Z2	X3	Y3	Z3	X4	Y4	Z4	X5	Y5	Z5	X6	Y6	Z6	X7	Y7	Z7	X8	Y8	Z8	X9	Y9	Z9	X10	Y10	Z10	X11	Y11	Z11	X12	Y12	Z12	X13	Y13	Z13	X14	Y14	Z14	X15	Y15	Z15	X16	Y16	Z16	X17	Y17	Z17	X18	Y18	Z18	X19	Y19	Z19	X20	Y20	Z20	X21	Y21	Z21	X22	Y22	Z22	X23	Y23	Z23	X24	Y24	Z24	X25	Y25	Z25	X26	Y26	Z26	X27	Y27	Z27	X28	Y28	Z28	X29	Y29	Z29	X30	Y30	Z30	X31	Y31	Z31	X32	Y32	Z32	X33	Y33	Z33	X34	Y34	Z34	X35	Y35	Z35	X36	Y36	Z36	X37	Y37	Z37	X38	Y38	Z38	X39	Y39	Z39	X40	Y40	Z40	X41	Y41	Z41	X42	Y42	Z42	X43	Y43	Z43	X44	Y44	Z44	X45	Y45	Z45	X46	Y46	Z46	X47	Y47	Z47	X48	Y48	Z48	X49	Y49	Z49	X50	Y50	Z50	X51	Y51	Z51	X52	Y52	Z52	X53	Y53	Z53	X54	Y54	Z54	X55	Y55	Z55	X56	Y56	Z56	X57	Y57	Z57	X58	Y58	Z58	X59	Y59	Z59	X60	Y60	Z60	X61	Y61	Z61	

989	4.94	-126.2791061401367	2180.084716796875	-848.7960205078127	-281.2794189453126	2117.420166015625	-926.6357421875002	-301.4784851074219	2105.807861328125	-789.040710449219	-310.0829772949219	1942.145385742188	-855.386657714844	-276.7325439453126	1614.931640625	-873.406433105469	-152.7573547363282	1924.055541992188	-861.958679199219	-213.345199584961	1975.945678710938	-1014.324035644531	-254.2527008056641	1839.569702148438	-1202.974365234375	-210.3120574951172	1810.44677734375	-1206.57763671875	-248.6820831298829	1785.470336914063	-1246.876342773438	-232.5352935791016	1721.771606445313	-1266.969848632813	-309.3248291015626	1694.111206054688	-1228.01416015625	-194.0816650390626	1512.0693359375	-1107.945678710938	-140.039535522461	1479.991455078125	-1156.748779296875	-139.3259429931641	1526.453735351563	-1068.065673828125	-207.9854736328126	1965.950073242188	-700.0108642578126	-270.5305786132813	1810.255249023438	-531.5914306640626	-236.041976928711	1775.355346679688	-525.9890136718751	-282.5259704589844	1749.935791015625	-496.3679504394532	-282.3674011230469	1698.998291015625	-481.4986267089845	-347.0671386718751	1682.587036132813	-538.1112670898439	-228.3199920654297	1485.861572265625	-652.9667358398439	-177.2398376464844	1465.853271484375	-593.6962890625001	-165.8556823730469	1512.003662109375	-678.0634765625001	-71.50572967529298	1443.634155273438	-996.8530883789065	-80.19045257568361	1446.02099609375	-736.2972412109376	-262.0579528808594	1532.644287109375	-868.8526611328127	-265.0279846191407	1499.759887695313	-896.037780761719	-265.8897705078126	1498.195068359375	-839.8707275390627	-230.4376831054688	1233.189819335938	-1086.032348632813	-219.2620086669922	1149.599365234375	-1101.89306640625	-173.6995239257813	1142.493530273438	-1105.927734375	-258.4959411621094	1103.793701171875	-1088.309204101563	-295.4404602050782	954.5310058593752	-1087.666748046875	-235.1190338134766	913.6412353515627	-971.5967407226565	-307.9862365722657	778.6983642578127	-1074.122436523438	-383.6883544921876	767.0396728515626	-1118.925537109375	-343.7397766113282	746.6640014648439	-1107.198974609375	-370.8609619140626	668.4808959960939	-1082.882446289063	-490.6236267089845	572.2786865234376	-1113.959350585938	-428.8360900878907	560.5604858398439	-1038.203979492188	-531.1479492187501	607.1801147460939	-1049.263549804688	-414.8979492187501	419.6875915527345	-1043.05419921875	-425.2039794921876	407.7939758300782	-1089.97021484375	-487.5449523925782	427.712615966797	-1123.321411132813	-264.7816467285157	1165.019409179688	-679.4837036132814	-246.1544952392579	1103.07763671875	-668.7279052734376	-215.7622985839844	1095.380004882813	-660.1430664062501	-289.6315612792969	1034.885009765625	-691.3143920898439	-327.0232238769532	950.4236450195315	-697.6183471679689	-233.8102569580079	922.0968017578127	-794.9448852539065	-320.0947265625001	833.1873779296877	-681.0989990234376	-419.5486450195314	794.0129394531252	-680.9006958007814	-380.5994262695313	770.9788818359377	-669.3255004882814	-376.3535156250001	714.7202148437501	-684.3232421875001	-502.1794433593751	577.5551757812501	-693.4558715820314	-430.2373352050782	557.0983886718751	-751.5856933593751	-528.5026245117189	601.6966552734376	-775.4467773437502	-427.4002990722657	407.5034179687501	-722.4149169921876	-445.9811401367189	410.148895263672	-678.5199584960939	-508.367156982422	438.287078857422	-663.3426513671876	
990	4.945	-125.9052200317383	2181.7890625	-848.9517822265627	-280.7609558105469	2119.09912109375	-926.7144775390627	-301.1064758300782	2107.479736328125	-789.1257934570315	-309.3626403808594	1943.77197265625	-855.298034667969	-276.6322326660157	1616.7490234375	-872.799987792969	-152.0543365478516	1925.504150390625	-861.9871215820315	-212.9485473632813	1976.976806640625	-1014.667724609375	-253.9127807617188	1840.515991210938	-1202.757934570313	-210.4203796386719	1811.495483398438	-1206.5849609375	-248.7320861816407	1786.259033203125	-1246.801879882813	-232.5240173339844	1722.698364257813	-1266.71484375	-309.5523986816407	1695.012573242188	-1227.898193359375	-192.6002807617188	1513.361572265625	-1107.718139648438	-139.4915771484375	1481.335815429688	-1156.2958984375	-139.122543334961	1527.732788085938	-1067.682983398438	-207.8311004638672	1967.608032226563	-699.6043701171876	-270.6887207031251	1811.7783203125	-531.1242065429689	-235.7779083251954	1777.18505859375	-525.3333129882814	-282.4817199707032	1751.530883789063	-495.8833007812501	-281.8269653320313	1700.532836914063	-480.950164794922	-346.5497436523438	1684.090087890625	-537.5479125976564	-228.0930175781251	1487.194580078125	-652.0359497070314	-177.1052703857422	1467.280395507813	-592.8360595703126	-165.6172943115235	1513.479736328125	-677.3556518554689	-71.94348144531251	1444.85009765625	-996.143005371094	-80.84212493896486	1446.943237304688	-736.1113281250001	-262.1196594238282	1533.998168945313	-868.2314453125002	-266.5682678222657	1501.052001953125	-895.336608886719	-266.4260559082032	1499.6318359375	-839.341979980469	-229.0882873535157	1234.081665039063	-1086.489624023438	-217.7502136230469	1150.497192382813	-1101.907836914063	-172.5364685058594	1143.50732421875	-1105.345825195313	-257.2882995605469	1104.8408203125	-1088.767578125	-293.6378479003907	955.516784667969	-1088.287231445313	-235.0718688964844	914.8822021484377	-971.4229736328127	-306.2469787597657	779.832702636719	-1074.937866210938	-382.1003417968751	767.9840087890626	-1120.096923828125	-342.0616149902344	747.7351074218751	-1108.411010742188	-368.6965026855469	669.5642700195314	-1084.531005859375	-487.9694824218751	572.8692626953126	-1116.0458984375	-426.690155029297	560.7355346679689	-1040.099243164063	-529.1690673828126	607.2504272460939	-1050.928466796875	-412.232391357422	420.0113220214845	-1046.615234375	-422.3716735839845	408.3255920410157	-1093.547973632813	-484.636932373047	428.700408935547	-1127.018188476563	-264.4065856933594	1166.009887695313	-678.3746948242189	-245.2558135986329	1103.839233398438	-668.0270385742189	-214.7444000244141	1096.491455078125	-659.7132568359376	-288.9856262207032	1035.5888671875	-690.6005249023439	-325.8275451660157	951.570983886719	-696.2440185546876	-233.0634460449219	923.346618652344	-794.591735839844	-318.4108886718751	834.1028442382815	-680.4936523437501	-417.7206115722657	794.812194824219	-678.8760375976564	-378.4841003417969	771.5303344726565	-667.9872436523439	-374.8176879882813	715.6398315429689	-683.0674438476564	-500.2888793945314	577.9878540039064	-690.9615478515626	-428.8948669433595	558.0239868164064	-750.0902709960939	-527.9533081054689	602.3626098632814	-772.353210449219	-425.2395019531251	408.3933410644532	-721.3988037109376	-443.1998901367189	410.7933959960939	-677.2166748046876	-505.7249450683595	438.6635131835939	-660.9556884765626	
991	4.95	-125.1138534545899	2182.988037109375	-849.205261230469	-280.3931579589844	2120.56005859375	-926.8651123046877	-300.4473266601563	2109.186767578125	-789.2390747070315	-308.8097839355469	1945.176635742188	-855.137145996094	-277.1152343750001	1618.190307617188	-872.4094848632815	-151.6157989501953	1926.563354492188	-862.0661621093752	-211.754379272461	1977.942626953125	-1015.080993652344	-254.3088073730469	1840.968505859375	-1202.56298828125	-211.3534240722657	1812.29052734375	-1206.543823242188	-249.2684478759766	1786.841796875	-1246.711181640625	-232.7729644775391	1723.380249023438	-1266.539428710938	-309.4974060058594	1695.523071289063	-1227.561645507813	-192.2220611572266	1514.38623046875	-1107.202026367188	-138.957260131836	1482.456909179688	-1155.883544921875	-138.917236328125	1528.96142578125	-1067.0439453125	-207.3995361328126	1968.63330078125	-699.3776245117189	-270.6636047363282	1813.086547851563	-530.8097534179689	-235.9410858154297	1778.670654296875	-524.5012817382814	-282.4466857910157	1752.888793945313	-495.2990112304689	-281.6733093261719	1701.98779296875	-480.4409484863282	-346.1241149902344	1685.294189453125	-536.9855346679689	-227.9639282226563	1488.36083984375	-651.2810668945314	-176.6493225097657	1468.737182617188	-592.0517578125001	-165.3815307617188	1514.468994140625	-676.8967895507814	-72.2913284301758	1445.724731445313	-995.2354736328127	-81.30568695068361	1448.4013671875	-735.6871337890626	-262.1951904296876	1534.90771484375	-867.887390136719	-265.6539306640626	1502.125366210938	-894.8729248046877	-266.7662658691407	1500.753540039063	-838.843444824219	-227.9048461914063	1234.849609375	-1086.906982421875	-216.7295227050782	1151.339599609375	-1101.657104492188	-171.2840270996094	1144.370361328125	-1104.811645507813	-256.1558837890626	1105.672485351563	-1089.071533203125	-292.4275207519532	955.9351196289065	-1088.586181640625	-235.1375579833985	915.7189941406252	-971.1881103515627	-304.9325561523438	780.5056762695315	-1075.814697265625	-380.2510070800782	768.6280517578127	-1121.5107421875	-340.4078674316407	748.3740844726564	-1109.626098632813	-366.9019165039063	670.2196044921876	-1085.986938476563	-485.7275390625001	573.4921264648439	-1118.200927734375	-424.4022521972657	560.7573852539064	-1042.174682617188	-527.1188354492189	606.8868408203126	-1052.610961914063	-409.3411254882814	419.9765625000001	-1050.236328125	-418.7459411621095	408.8675231933595	-1097.426879882813	-481.3413696289064	429.4647827148439	-1130.965942382813	-264.1403198242188	1166.81103515625	-677.7400512695314	-244.9253997802735	1104.480346679688	-667.2412109375001	-214.205062866211	1097.287231445313	-659.1693115234376	-288.6931457519532	1036.463745117188	-689.5502929687501	-324.9880676269532	952.300720214844	-695.0935058593751	-233.1544189453126	924.349060058594	-794.374694824219	-316.9295349121094	834.5269165039065	-679.5463256835939	-415.7532348632814	795.3038330078127	-676.3944091796876	-376.5417785644532	771.9731445312502	-666.3377685546876	-372.9238891601563	716.0252685546876	-681.6055297851564	-498.1835327148439	578.0035400390626	-687.9317626953126	-427.4463195800782	558.6140747070314	-748.4169921875001	-527.3082885742189	602.6737060546876	-768.8990478515627	-423.6613159179689	408.504852294922	-720.4207763671876	-440.1851806640626	411.0103454589845	-676.1659545898439	-502.4691467285157	438.4206542968751	-658.7446899414064	
992	4.955	-124.4724807739258	2184.06494140625	-849.4028320312502	-279.6632690429688	2121.72216796875	-927.0084228515627	-299.8703308105469	2110.52099609375	-789.3818359375002	-308.2219238281251	1946.346313476563	-854.9053955078127	-276.7531433105469	1619.253051757813	-872.0859375000002	-150.8714294433594	1927.567626953125	-862.0037231445315	-211.9566955566407	1978.470092773438	-1015.177612304688	-254.9256896972657	1841.1904296875	-1202.42236328125	-212.0435638427735	1812.776977539063	-1206.687866210938	-250.4228515625001	1787.087158203125	-1246.661865234375	-233.2495269775391	1723.740478515625	-1266.285888671875	-309.6376647949219	1695.766845703125	-1227.03515625	-191.6357116699219	1514.898681640625	-1106.897338867188	-138.6435241699219	1483.425659179688	-1155.336547851563	-138.7708740234375	1529.817993164063	-1066.543823242188	-206.9908905029297	1969.75537109375	-699.1346435546876	-270.8967285156251	1814.19384765625	-530.3691406250001	-236.0608215332032	1779.972045898438	-523.7597045898439	-282.5750122070313	1753.984497070313	-494.7707519531251	-281.4834899902344	1703.095581054688	-479.884979248047	-345.7849731445313	1686.212646484375	-536.3441772460939	-227.8461151123047	1489.49462890625	-650.6066894531251	-176.692138671875	1469.79833984375	-591.5489501953126	-165.5211334228516	1515.522216796875	-676.6157226562501	-72.0261917114258	1446.905883789063	-994.942321777344	-81.55509185791017	1448.940185546875	-735.3938598632814	-262.5596313476563	1535.61962890625	-867.551940917969	-265.8062744140626	1503.010131835938	-894.6748657226565	-266.7730712890626	1501.68603515625	-838.4299926757815	-227.1103057861329	1235.46484375	-1087.088745117188	-215.3016967773438	1152.37890625	-1101.970825195313	-170.0896148681641	1144.963623046875	-1104.448974609375	-255.2544708251954	1106.280883789063	-1089.208984375	-291.1162414550782	956.3369750976565	-1089.0078125	-235.0338439941407	916.1929321289065	-971.103698730469	-303.2160644531251	781.2343750000002	-1076.344848632813	-378.4992980957032	768.9414672851565	-1122.828491210938	-338.2404785156251	749.0809936523439	-1110.811401367188	-364.6606750488282	670.6574707031251	-1087.483032226563	-482.9124755859376	573.5172119140626	-1120.6630859375	-422.0068359375001	560.4624023437501	-1044.301635742188	-524.7667846679689	606.1519775390626	-1054.83740234375	-406.1991271972657	419.6594238281251	-1054.121704101563	-415.5745544433595	409.0162658691407	-1101.328735351563	-478.0694885253907	430.1390991210939	-1134.990234375	-263.7406921386719	1167.375610351563	-677.1538085937501	-244.7438354492188	1105.434326171875	-666.3918457031251	-213.8799591064454	1097.855834960938	-658.6690063476564	-288.3913574218751	1037.212890625	-689.0621337890626	-323.9942626953126	952.8245239257815	-693.9541015625001	-233.2569732666016	925.2654418945315	-794.279968261719	-314.7152404785157	834.703552246094	-678.9600830078126	-413.7425231933595	795.3197021484377	-674.0046386718751	-374.0000915527344	771.9305419921877	-664.8188476562501	-370.7942504882813	716.2017822265626	-680.2637939453126	-495.5942687988282	577.7723999023439	-684.6921386718751	-426.3335266113282	558.8038330078126	-746.5170898437501	-526.4528198242189	602.6041259765626	-764.7815551757814	-420.9032592773439	408.8587341308595	-719.8306274414064	-436.8802795410157	410.3844299316407	-675.2623291015626	-498.8544311523439	437.7832641601564	-656.2590942382814	
